<svg width="28" height="28" viewBox="0 0 28 28" fill="none" xmlns="http://www.w3.org/2000/svg">
<path d="M14 9.05942C14.4118 9.05942 14.7455 9.39322 14.7456 9.80502V16.8613L17.2018 14.4051C17.493 14.1139 17.9647 14.1141 18.256 14.4051C18.5472 14.6964 18.5472 15.1681 18.256 15.4593L14.5271 19.1882C14.2359 19.4794 13.7641 19.4794 13.4729 19.1882L9.74402 15.4593C9.45296 15.1681 9.45284 14.6963 9.74402 14.4051C10.0352 14.1139 10.507 14.1141 10.7982 14.4051L13.2544 16.8613V9.80502C13.2545 9.39328 13.5883 9.05952 14 9.05942Z" fill="#008BFF"/>
<path fill-rule="evenodd" clip-rule="evenodd" d="M14 3C20.0752 3 24.9999 7.92485 25 14C25 20.0752 20.0752 25 14 25C7.92485 24.9999 3 20.0752 3 14C3.0001 7.92491 7.92491 3.0001 14 3ZM14 4.49119C8.74867 4.49128 4.49128 8.74867 4.49119 14C4.49119 19.2514 8.74861 23.5087 14 23.5088C19.2515 23.5088 23.5088 19.2515 23.5088 14C23.5087 8.74861 19.2514 4.49119 14 4.49119Z" fill="#008BFF"/>
</svg>
