<svg width="28" height="28" viewBox="0 0 28 28" fill="none" xmlns="http://www.w3.org/2000/svg">
<path fill-rule="evenodd" clip-rule="evenodd" d="M10.8769 12.1986C12.8301 12.1986 14.4145 10.592 14.4145 8.60278C14.4145 6.6136 12.8301 5 10.8769 5C8.92372 5 7.33932 6.6136 7.33932 8.60278C7.33932 10.592 8.92372 12.1986 10.8769 12.1986ZM18.9628 12.1986C20.636 12.1986 21.9882 10.8215 21.9882 9.11747C21.9882 7.41345 20.636 6.02937 18.9628 6.02937C17.2896 6.02937 15.9306 7.41345 15.9306 9.11747C15.9306 10.8215 17.2896 12.1986 18.9628 12.1986ZM17.1326 17.1229C17.7131 17.721 18.1433 18.3887 18.4711 19.0495C18.7989 19.7102 18.8262 20.364 18.635 20.9482C18.2389 22.1306 16.9209 23 15.4252 23H6.33541C4.10222 23 2.27879 21.0734 3.2827 19.0495C4.32759 16.9351 6.47199 14.772 10.8769 14.772C12.6252 14.772 14.0184 15.1128 15.1316 15.6553C15.1521 15.6692 15.1794 15.6832 15.2067 15.6971C15.5823 15.8849 15.9238 16.1005 16.2311 16.33C16.5657 16.5734 16.8662 16.8377 17.1326 17.1229ZM16.6682 14.9737C18.1228 15.9335 19.0653 17.2063 19.6731 18.4304C20.0965 19.2859 20.1853 20.1553 20.0214 20.9482H22.4936C24.1668 20.9482 25.5326 19.5015 24.7951 17.9714C24.0029 16.3439 22.3638 14.6538 18.9628 14.6538C18.075 14.6538 17.317 14.7651 16.6545 14.9598L16.6682 14.9737Z" fill="#008BFF"/>
</svg>
