<svg width="28" height="28" viewBox="0 0 28 28" fill="none" xmlns="http://www.w3.org/2000/svg">
<path d="M21.8 20.1327C21.8 20.9891 21.1078 21.9062 19.6609 22.6439C18.2437 23.3664 16.2422 23.8319 14 23.8319V25C16.3969 25 18.5953 24.5057 20.2187 23.6782C21.8125 22.866 23 21.6416 23 20.1327H21.8ZM14 23.8319C11.7578 23.8319 9.75625 23.3664 8.33906 22.6439C6.89219 21.9062 6.2 20.9891 6.2 20.1327H5C5 21.6416 6.1875 22.866 7.78125 23.6782C9.40469 24.5057 11.6031 25 14 25V23.8319ZM23 20.1327V16.2389H21.8V20.1327H23ZM6.2 20.1327V16.2389H5V20.1327H6.2Z" fill="#008BFF"/>
<path d="M21.8 16.6283C21.8 17.4847 21.1078 18.4018 19.6609 19.1395C18.2437 19.862 16.2422 20.3274 14 20.3274V21.4956C16.3969 21.4956 18.5953 21.0012 20.2187 20.1738C21.8125 19.3616 23 18.1372 23 16.6283H21.8ZM14 20.3274C11.7578 20.3274 9.75625 19.862 8.33906 19.1395C6.89219 18.4018 6.2 17.4847 6.2 16.6283H5C5 18.1372 6.1875 19.3616 7.78125 20.1738C9.40469 21.0012 11.6031 21.4956 14 21.4956V20.3274ZM23 16.6283V12.7345H21.8V16.6283H23ZM6.2 16.6283V12.7345H5V16.6283H6.2Z" fill="#008BFF"/>
<path d="M21.8 12.7345C21.8 13.5908 21.1078 14.508 19.6609 15.2457C18.2437 15.9682 16.2422 16.4336 14 16.4336V17.6018C16.3969 17.6018 18.5953 17.1074 20.2187 16.28C21.8125 15.4678 23 14.2434 23 12.7345H21.8ZM14 16.4336C11.7578 16.4336 9.75625 15.9682 8.33906 15.2457C6.89219 14.508 6.2 13.5908 6.2 12.7345H5C5 14.2434 6.1875 15.4678 7.78125 16.28C9.40469 17.1074 11.6031 17.6018 14 17.6018V16.4336Z" fill="#008BFF"/>
<path d="M21.9141 10.38C21.6828 10.1488 21.3016 10.1442 21.0656 10.3693C20.8281 10.5944 20.8234 10.964 21.0547 11.1952L21.9141 10.38ZM6.94531 11.1952C7.17656 10.964 7.17187 10.5944 6.93437 10.3693C6.69844 10.1442 6.31719 10.1488 6.08594 10.38L6.94531 11.1952ZM21.8 12.7345C21.8 13.5908 21.1078 14.508 19.6609 15.2457C18.2437 15.9682 16.2422 16.4336 14 16.4336V17.6018C16.3969 17.6018 18.5953 17.1074 20.2187 16.28C21.8125 15.4678 23 14.2434 23 12.7345H21.8ZM14 16.4336C11.7578 16.4336 9.75625 15.9682 8.33906 15.2457C6.89219 14.508 6.2 13.5908 6.2 12.7345H5C5 14.2434 6.1875 15.4678 7.78125 16.28C9.40469 17.1074 11.6031 17.6018 14 17.6018V16.4336ZM21.0547 11.1952C21.5625 11.7017 21.8 12.225 21.8 12.7345H23C23 11.8432 22.5766 11.0416 21.9141 10.38L21.0547 11.1952ZM6.2 12.7345C6.2 12.225 6.4375 11.7017 6.94531 11.1952L6.08594 10.38C5.42344 11.0416 5 11.8432 5 12.7345H6.2Z" fill="#008BFF"/>
<path d="M19.8 16.2389C19.8 15.9165 19.5312 15.6549 19.2 15.6549C18.8687 15.6549 18.6 15.9165 18.6 16.2389H19.8ZM18.6 23.2478C18.6 23.5702 18.8687 23.8319 19.2 23.8319C19.5312 23.8319 19.8 23.5702 19.8 23.2478H18.6ZM18.6 16.2389V23.2478H19.8V16.2389H18.6Z" fill="#008BFF"/>
<path d="M9.4 16.2389C9.4 15.9165 9.13125 15.6549 8.8 15.6549C8.46875 15.6549 8.2 15.9165 8.2 16.2389H9.4ZM8.2 23.2478C8.2 23.5702 8.46875 23.8319 8.8 23.8319C9.13125 23.8319 9.4 23.5702 9.4 23.2478H8.2ZM8.2 16.2389V23.2478H9.4V16.2389H8.2Z" fill="#008BFF"/>
<path d="M13 17.0177C13 16.6952 12.7312 16.4336 12.4 16.4336C12.0687 16.4336 11.8 16.6952 11.8 17.0177H13ZM11.8 24.0265C11.8 24.349 12.0687 24.6106 12.4 24.6106C12.7312 24.6106 13 24.349 13 24.0265H11.8ZM11.8 17.0177V24.0265H13V17.0177H11.8Z" fill="#008BFF"/>
<path d="M16.6 17.0177C16.6 16.6952 16.3312 16.4336 16 16.4336C15.6687 16.4336 15.4 16.6952 15.4 17.0177H16.6ZM15.4 24.0265C15.4 24.349 15.6687 24.6106 16 24.6106C16.3312 24.6106 16.6 24.349 16.6 24.0265H15.4ZM15.4 17.0177V24.0265H16.6V17.0177H15.4Z" fill="#008BFF"/>
<path fill-rule="evenodd" clip-rule="evenodd" d="M14 14.6814C17.3141 14.6814 20 12.0668 20 8.84071C20 5.61463 17.3141 3 14 3C10.6859 3 8 5.61463 8 8.84071C8 12.0668 10.6859 14.6814 14 14.6814ZM14.0187 4.81001C14.1687 4.81001 14.2891 4.92865 14.2891 5.07315V5.64505C15.2375 5.73023 15.9656 6.21239 16.1891 6.96073C16.2109 7.02005 16.2234 7.09306 16.2234 7.1828C16.2234 7.43072 16.0437 7.59347 15.7891 7.59347C15.5516 7.59347 15.4062 7.487 15.3047 7.26493C15.0891 6.69455 14.6047 6.45119 13.9719 6.45119C13.2281 6.45119 12.6781 6.80102 12.6781 7.36684C12.6781 7.81706 13.0078 8.1167 13.8312 8.28706L14.5219 8.42851C15.8547 8.70382 16.4 9.22096 16.4 10.1214C16.4 11.2013 15.5906 11.9101 14.2891 12.0059V12.6174C14.2891 12.7619 14.1687 12.8805 14.0187 12.8805C13.8703 12.8805 13.7484 12.7619 13.7484 12.6174V12.012C12.6406 11.9527 11.8844 11.4553 11.6531 10.78C11.6219 10.6857 11.6 10.5838 11.6 10.4804C11.6 10.202 11.7766 10.0225 12.0437 10.0225C12.2687 10.0225 12.4141 10.1214 12.5109 10.3526C12.7094 10.9306 13.2844 11.1998 14.0203 11.1998C14.825 11.1998 15.4016 10.7983 15.4016 10.2446C15.4016 9.76549 15.0672 9.46585 14.2172 9.28637L13.5219 9.14491C12.2562 8.8833 11.6797 8.30987 11.6797 7.41856C11.6797 6.42381 12.5234 5.71958 13.7484 5.64049V5.07315C13.7484 4.92865 13.8703 4.81001 14.0187 4.81001Z" fill="#008BFF"/>
</svg>
